<svg width="900" height="300" viewBox="0 0 900 300" fill="none" xmlns="http://www.w3.org/2000/svg">
<rect width="900" height="300" fill="#FEFEFE"/>
<path d="M291.27 118.645H304.6L308.915 122.151C310.788 123.672 313.47 123.672 315.343 122.151L319.658 118.645H332.988L345.258 136.994L312.129 179.806L279 136.994L291.27 118.645Z" fill="#F87D6C"/>
<path d="M402.22 151.856H366.338C366.664 156.314 368.377 159.929 371.476 162.702C374.575 165.42 378.489 166.779 383.219 166.779C385.883 166.779 388.329 166.317 390.558 165.393C392.787 164.414 394.717 163.001 396.348 161.152L399.61 164.903C397.707 167.187 395.315 168.927 392.434 170.123C389.607 171.319 386.481 171.917 383.056 171.917C378.652 171.917 374.738 170.992 371.313 169.144C367.942 167.241 365.305 164.632 363.403 161.315C361.5 157.999 360.548 154.248 360.548 150.062C360.548 145.876 361.445 142.124 363.239 138.808C365.088 135.492 367.589 132.909 370.742 131.061C373.949 129.212 377.538 128.288 381.506 128.288C385.475 128.288 389.036 129.212 392.189 131.061C395.342 132.909 397.816 135.492 399.61 138.808C401.404 142.07 402.301 145.821 402.301 150.062L402.22 151.856ZM381.506 133.263C377.374 133.263 373.895 134.595 371.068 137.259C368.295 139.868 366.719 143.293 366.338 147.534H396.756C396.375 143.293 394.771 139.868 391.944 137.259C389.172 134.595 385.692 133.263 381.506 133.263Z" fill="#323232"/>
<path d="M449.716 128.614L430.634 171.509H424.681L405.68 128.614H411.715L427.78 165.148L444.008 128.614H449.716Z" fill="#323232"/>
<path d="M494.407 151.856H458.526C458.852 156.314 460.565 159.929 463.664 162.702C466.763 165.42 470.677 166.779 475.407 166.779C478.071 166.779 480.517 166.317 482.746 165.393C484.975 164.414 486.905 163.001 488.536 161.152L491.798 164.903C489.895 167.187 487.503 168.927 484.622 170.123C481.795 171.319 478.669 171.917 475.244 171.917C470.84 171.917 466.926 170.992 463.501 169.144C460.13 167.241 457.493 164.632 455.59 161.315C453.688 157.999 452.736 154.248 452.736 150.062C452.736 145.876 453.633 142.124 455.427 138.808C457.276 135.492 459.777 132.909 462.93 131.061C466.137 129.212 469.725 128.288 473.694 128.288C477.663 128.288 481.224 129.212 484.377 131.061C487.53 132.909 490.004 135.492 491.798 138.808C493.592 142.07 494.489 145.821 494.489 150.062L494.407 151.856ZM473.694 133.263C469.562 133.263 466.083 134.595 463.256 137.259C460.483 139.868 458.907 143.293 458.526 147.534H488.944C488.563 143.293 486.959 139.868 484.132 137.259C481.36 134.595 477.88 133.263 473.694 133.263Z" fill="#323232"/>
<path d="M512.202 137.014C513.561 134.133 515.572 131.958 518.236 130.49C520.954 129.022 524.298 128.288 528.267 128.288V133.915L526.88 133.834C522.368 133.834 518.834 135.22 516.279 137.993C513.724 140.765 512.446 144.652 512.446 149.654V171.509H506.656V128.614H512.202V137.014Z" fill="#323232"/>
<path d="M539.132 111H544.922V171.509H539.132V111Z" fill="#323232"/>
<path d="M561.415 111H567.205V171.509H561.415V111Z" fill="#323232"/>
<path d="M619.742 128.614L598.294 176.646C596.555 180.67 594.543 183.524 592.26 185.209C589.976 186.894 587.231 187.737 584.023 187.737C581.958 187.737 580.028 187.411 578.233 186.758C576.439 186.106 574.89 185.127 573.585 183.823L576.276 179.501C578.451 181.675 581.06 182.763 584.105 182.763C586.062 182.763 587.72 182.219 589.079 181.132C590.493 180.044 591.798 178.196 592.994 175.586L594.869 171.427L575.705 128.614H581.74L597.887 165.067L614.033 128.614H619.742Z" fill="#323232"/>
</svg>
