<svg width="280" height="115" viewBox="0 0 280 115" fill="none" xmlns="http://www.w3.org/2000/svg">
<g clip-path="url(#clip0_125_1106)">
<path d="M166.332 82.1092L164.964 90.153H132.715V48.8303H142.891V82.1092H166.332Z" fill="#6D6E70"/>
<path d="M171.776 89.657H181.002V48.7352H171.776V89.657Z" fill="#6D6E70"/>
<path d="M217.084 89.657H227.653V48.7352H219.262V60.9456C219.262 67.2575 219.262 73.7802 219.618 77.674L219.667 78.1906H218.737L218.605 77.9385C216.89 74.6978 214.191 70.6428 209.288 63.2769C206.75 59.4824 203.609 54.7454 199.682 48.7352H188.377V89.657H196.71V76.8431C196.71 69.3408 196.71 63.4133 196.354 58.3126L196.317 57.8042H197.231L197.363 58.0563C199.24 61.6318 207.474 74.549 212.922 83.0971C214.645 85.8335 216.117 88.1441 217.084 89.657Z" fill="#6D6E70"/>
<path d="M38.1565 76.7025C36.5899 83.7874 31.6462 91.1244 19.6135 91.1244C6.92364 91.1244 0 82.2249 0 69.2167C0 56.9361 7.33285 46.8007 20.1922 46.8007C33.7047 46.8007 37.8258 56.5269 38.1565 61.5491H28.1038C27.2771 57.7587 25.0532 54.9561 19.9442 54.9561C13.8473 54.9561 10.4661 60.2305 10.4661 68.8819C10.4702 78.0831 13.9299 83.0434 19.8739 83.0434C24.3257 83.0434 26.7976 80.4888 28.0335 76.6984L38.1565 76.7025Z" fill="#00ADEE"/>
<path d="M54.058 71.0975C54.058 77.4424 57.2739 82.9648 63.6188 82.9648C69.0586 82.9648 70.7864 80.4847 71.9396 77.7731H82.2403C80.6737 83.0475 76.0401 91.1244 63.2882 91.1244C49.6104 91.1244 43.7573 80.5756 43.7573 69.535C43.7573 56.4318 50.4329 46.8007 63.7801 46.8007C78.0365 46.8007 82.8149 57.4321 82.8149 67.4683C82.8455 68.679 82.7902 69.8904 82.6495 71.0934L54.058 71.0975ZM72.5183 64.5872C72.4356 58.8995 69.9638 54.2865 63.7015 54.2865C57.4392 54.2865 54.8847 58.573 54.306 64.5872H72.5183Z" fill="#00ADEE"/>
<path d="M91.4622 90.1324V34.0613H101.68V90.1324H91.4622Z" fill="#00ADEE"/>
<path d="M111.188 90.1076V23H121.406V90.1076H111.188Z" fill="#00ADEE"/>
<path d="M256.952 90.8558C252.439 90.8301 248.033 89.4862 244.274 86.9893C240.516 84.4924 237.569 80.9514 235.796 76.8018C230.716 64.9841 236.032 51.1451 247.651 45.9575C250.403 44.72 253.375 44.0459 256.391 43.9749C259.408 43.904 262.408 44.4375 265.215 45.5442C268.085 46.6625 270.702 48.3444 272.912 50.4905C275.122 52.6366 276.88 55.2035 278.082 58.0398C279.691 61.8036 280.303 65.9179 279.862 69.987C279.42 74.0561 277.939 77.9431 275.561 81.2743L269.361 76.8101C270.971 74.5522 271.974 71.918 272.272 69.1606C272.57 66.4033 272.154 63.6156 271.064 61.0655C270.259 59.1615 269.082 57.4378 267.601 55.996C266.12 54.5542 264.366 53.4234 262.441 52.6704C260.576 51.9363 258.584 51.583 256.58 51.6313C254.577 51.6796 252.603 52.1285 250.776 52.9514C242.952 56.4443 239.388 65.7943 242.828 73.7926C245.779 80.6501 253.095 84.4653 260.23 82.8615L261.908 90.3225C260.281 90.6825 258.618 90.8613 256.952 90.8558Z" fill="#00ADEE"/>
<path d="M265.693 73.3545L258.969 76.9951L268.009 93.6943L274.734 90.0537L265.693 73.3545Z" fill="#00ADEE"/>
</g>
<defs>
<clipPath id="clip0_125_1106">
<rect width="280" height="70.7161" fill="white" transform="translate(0 23)"/>
</clipPath>
</defs>
</svg>
