<svg width="186" height="41" viewBox="0 0 186 41" fill="none" xmlns="http://www.w3.org/2000/svg">
<g clip-path="url(#clip0_255_22853)">
<path fill-rule="evenodd" clip-rule="evenodd" d="M20.5 41C31.8218 41 41 31.8218 41 20.5C41 9.17816 31.8218 0 20.5 0C9.17816 0 0 9.17816 0 20.5C0 31.8218 9.17816 41 20.5 41ZM28.9112 34.2798C33.5477 31.4436 36.6418 26.3331 36.6418 20.5C36.6418 11.5852 29.4149 4.35828 20.5 4.35828C11.5852 4.35828 4.35831 11.5852 4.35831 20.5C4.35831 29.4148 11.5852 36.6417 20.5 36.6417C22.0565 36.6417 23.5615 36.4214 24.9856 36.0103C21.3395 28.8698 26.5602 25.0148 28.813 23.4056L22.4371 17.1911C19.7166 19.1086 18.2263 19.3407 15.6575 17.5946L22.4371 10.8958L35.1083 23.4056L34.7353 23.7163C29.5263 28.0533 26.6035 30.4868 28.9112 34.2798ZM19.0473 30.0237L6.53741 17.6753L17.9173 6.37604C19.1559 8.35284 19.3121 9.44949 18.563 11.38L12.5906 17.6753L19.0473 24.0512C20.7421 22.0335 23.1634 21.4686 25.6654 23.3249L19.0473 30.0237Z" fill="#03DDD2"/>
<path d="M57.9509 29.3715C56.2575 29.3715 54.7254 29.0032 53.3545 28.2668C51.9998 27.5143 50.9353 26.4897 50.1612 25.1929C49.3871 23.88 49 22.4071 49 20.7741C49 19.1411 49.3871 17.6762 50.1612 16.3794C50.9353 15.0665 52.0078 14.0419 53.3787 13.3054C54.7495 12.553 56.2817 12.1767 57.9751 12.1767C59.2976 12.1767 60.5071 12.4009 61.6038 12.8492C62.7005 13.2814 63.6359 13.9298 64.4101 14.7944L62.8376 16.3073C61.5635 14.9785 59.9749 14.3141 58.0719 14.3141C56.8139 14.3141 55.6769 14.5942 54.6608 15.1546C53.6448 15.7149 52.8465 16.4914 52.2659 17.484C51.7014 18.4607 51.4192 19.5573 51.4192 20.7741C51.4192 21.9909 51.7014 23.0956 52.2659 24.0882C52.8465 25.0648 53.6448 25.8333 54.6608 26.3936C55.6769 26.954 56.8139 27.2341 58.0719 27.2341C59.9588 27.2341 61.5474 26.5617 62.8376 25.2169L64.4101 26.7298C63.6359 27.5944 62.6925 28.2508 61.5796 28.6991C60.483 29.1473 59.2734 29.3715 57.9509 29.3715Z" fill="white"/>
<path d="M74.3687 16.3313C75.9976 16.3313 77.2878 16.8036 78.2394 17.7482C79.207 18.6768 79.6909 20.0456 79.6909 21.8548V29.1794H77.3685V22.1189C77.3685 20.8862 77.0701 19.9576 76.4734 19.3332C75.8766 18.7088 75.0219 18.3966 73.9091 18.3966C72.6511 18.3966 71.6592 18.7648 70.9335 19.5013C70.2077 20.2218 69.8449 21.2624 69.8449 22.6233V29.1794H67.5225V11.3602H69.8449V18.2525C70.3287 17.6441 70.9577 17.1719 71.7318 16.8356C72.5221 16.4994 73.401 16.3313 74.3687 16.3313Z" fill="white"/>
<path d="M88.6578 16.3313C90.4319 16.3313 91.7866 16.7636 92.722 17.6281C93.6735 18.4927 94.1493 19.7815 94.1493 21.4946V29.1794H91.9479V27.4983C91.5608 28.0907 91.0044 28.547 90.2787 28.8672C89.569 29.1713 88.7223 29.3234 87.7385 29.3234C86.3032 29.3234 85.15 28.9792 84.2791 28.2908C83.4244 27.6024 82.997 26.6978 82.997 25.5771C82.997 24.4564 83.4082 23.5598 84.2308 22.8874C85.0533 22.199 86.3596 21.8548 88.1498 21.8548H91.8269V21.3985C91.8269 20.4059 91.5366 19.6454 90.956 19.1171C90.3754 18.5887 89.5206 18.3246 88.3917 18.3246C87.6337 18.3246 86.8918 18.4527 86.1661 18.7088C85.4403 18.949 84.8275 19.2772 84.3275 19.6934L83.3598 17.9644C84.0211 17.436 84.8113 17.0358 85.7306 16.7636C86.6499 16.4754 87.6256 16.3313 88.6578 16.3313ZM88.1256 27.5463C89.0126 27.5463 89.7787 27.3542 90.4238 26.97C91.0689 26.5697 91.5366 26.0094 91.8269 25.2889V23.5118H88.2466C86.279 23.5118 85.2952 24.1682 85.2952 25.481C85.2952 26.1214 85.5452 26.6258 86.0451 26.994C86.5451 27.3622 87.2386 27.5463 88.1256 27.5463Z" fill="white"/>
<path d="M98.4471 16.4514H100.769V29.1794H98.4471V16.4514ZM99.6083 14.0019C99.1567 14.0019 98.7777 13.8578 98.4713 13.5696C98.181 13.2814 98.0358 12.9292 98.0358 12.5129C98.0358 12.0967 98.181 11.7445 98.4713 11.4563C98.7777 11.1521 99.1567 11 99.6083 11C100.06 11 100.431 11.1441 100.721 11.4323C101.028 11.7044 101.181 12.0487 101.181 12.4649C101.181 12.8972 101.028 13.2654 100.721 13.5696C100.431 13.8578 100.06 14.0019 99.6083 14.0019Z" fill="white"/>
<path d="M112.05 16.3313C113.679 16.3313 114.969 16.8036 115.921 17.7482C116.888 18.6768 117.372 20.0456 117.372 21.8548V29.1794H115.05V22.1189C115.05 20.8862 114.751 19.9576 114.155 19.3332C113.558 18.7088 112.703 18.3966 111.59 18.3966C110.332 18.3966 109.341 18.7648 108.615 19.5013C107.889 20.2218 107.526 21.2624 107.526 22.6233V29.1794H105.204V16.4514H107.429V18.3726C107.897 17.7162 108.526 17.2119 109.316 16.8597C110.123 16.5074 111.034 16.3313 112.05 16.3313Z" fill="white"/>
<path d="M128.613 12.3689C130.806 12.3689 132.532 12.8892 133.79 13.9298C135.048 14.9705 135.677 16.4034 135.677 18.2285C135.677 20.0537 135.048 21.4866 133.79 22.5272C132.532 23.5679 130.806 24.0882 128.613 24.0882H124.428V29.1794H122.009V12.3689H128.613ZM128.541 21.9989C130.073 21.9989 131.242 21.6787 132.048 21.0383C132.855 20.3819 133.258 19.4453 133.258 18.2285C133.258 17.0118 132.855 16.0832 132.048 15.4428C131.242 14.7864 130.073 14.4582 128.541 14.4582H124.428V21.9989H128.541Z" fill="white"/>
<path d="M151.079 16.4514V29.1794H148.878V27.2582C148.41 27.9146 147.789 28.4269 147.015 28.7951C146.257 29.1473 145.427 29.3234 144.523 29.3234C142.814 29.3234 141.467 28.8592 140.483 27.9306C139.5 26.986 139.008 25.6011 139.008 23.776V16.4514H141.33V23.5118C141.33 24.7446 141.629 25.6812 142.225 26.3216C142.822 26.946 143.677 27.2582 144.79 27.2582C146.015 27.2582 146.983 26.8899 147.693 26.1535C148.402 25.417 148.757 24.3764 148.757 23.0315V16.4514H151.079Z" fill="white"/>
<path d="M155.501 11.3602H157.823V29.1794H155.501V11.3602Z" fill="white"/>
<path d="M165.934 29.3234C164.886 29.3234 163.878 29.1874 162.91 28.9152C161.943 28.627 161.185 28.2668 160.636 27.8345L161.604 26.0094C162.169 26.4096 162.854 26.7298 163.66 26.97C164.467 27.2101 165.281 27.3302 166.104 27.3302C168.136 27.3302 169.152 26.7538 169.152 25.6011C169.152 25.2169 169.015 24.9127 168.741 24.6885C168.466 24.4644 168.12 24.3043 167.7 24.2082C167.297 24.0962 166.717 23.9761 165.959 23.848C164.926 23.6879 164.08 23.5038 163.418 23.2957C162.773 23.0876 162.217 22.7353 161.749 22.239C161.282 21.7427 161.048 21.0463 161.048 20.1497C161.048 18.997 161.531 18.0764 162.499 17.388C163.467 16.6835 164.765 16.3313 166.394 16.3313C167.249 16.3313 168.104 16.4354 168.958 16.6435C169.813 16.8517 170.515 17.1318 171.063 17.484L170.071 19.3092C169.023 18.6368 167.789 18.3006 166.37 18.3006C165.386 18.3006 164.636 18.4607 164.12 18.7809C163.604 19.1011 163.346 19.5253 163.346 20.0537C163.346 20.4699 163.491 20.7981 163.781 21.0383C164.072 21.2784 164.426 21.4545 164.846 21.5666C165.281 21.6787 165.886 21.8067 166.66 21.9508C167.692 22.1269 168.523 22.3191 169.152 22.5272C169.797 22.7193 170.345 23.0555 170.797 23.5358C171.248 24.0161 171.474 24.6885 171.474 25.5531C171.474 26.7058 170.974 27.6264 169.974 28.3148C168.991 28.9872 167.644 29.3234 165.934 29.3234Z" fill="white"/>
<path d="M185.964 22.8874C185.964 23.0635 185.948 23.2957 185.916 23.5839H175.514C175.659 24.7046 176.151 25.6091 176.989 26.2976C177.844 26.97 178.901 27.3062 180.158 27.3062C181.691 27.3062 182.924 26.7939 183.86 25.7692L185.142 27.2582C184.561 27.9306 183.836 28.4429 182.965 28.7951C182.11 29.1473 181.15 29.3234 180.086 29.3234C178.731 29.3234 177.53 29.0513 176.481 28.5069C175.433 27.9466 174.619 27.1701 174.038 26.1775C173.474 25.1849 173.191 24.0642 173.191 22.8154C173.191 21.5826 173.465 20.4699 174.014 19.4773C174.578 18.4847 175.344 17.7162 176.312 17.1719C177.296 16.6115 178.401 16.3313 179.626 16.3313C180.852 16.3313 181.941 16.6115 182.892 17.1719C183.86 17.7162 184.61 18.4847 185.142 19.4773C185.69 20.4699 185.964 21.6066 185.964 22.8874ZM179.626 18.2765C178.513 18.2765 177.578 18.6128 176.82 19.2852C176.078 19.9576 175.643 20.8381 175.514 21.9268H183.739C183.61 20.8542 183.166 19.9816 182.408 19.3092C181.666 18.6208 180.739 18.2765 179.626 18.2765Z" fill="white"/>
</g>
<defs>
<clipPath id="clip0_255_22853">
<rect width="186" height="41" fill="white"/>
</clipPath>
</defs>
</svg>
