<svg width="1201" height="152" viewBox="0 0 1201 152" fill="none" xmlns="http://www.w3.org/2000/svg">
<g clip-path="url(#clip0_1806_2653)">
<path d="M201.491 134.327V20.5586C215.161 19.5682 228.339 19.073 241.027 19.073C257.109 19.073 268.384 23.3868 274.852 32.0145C281.319 40.6421 284.544 55.7849 284.527 77.4427C284.527 99.1006 281.302 114.243 274.852 122.871C268.402 131.499 257.127 135.812 241.027 135.812C228.563 135.812 215.385 135.317 201.491 134.327ZM212.243 28.9659V125.92C223.271 126.143 232.865 126.252 241.027 126.246C253.049 126.246 261.403 122.673 266.09 115.529C270.777 108.384 273.117 95.6884 273.111 77.4427C273.111 59.197 270.768 46.4731 266.081 39.271C261.394 32.0689 253.04 28.4678 241.019 28.4678C239.037 28.4735 229.445 28.6396 212.243 28.9659Z" fill="white"/>
<path d="M352.899 99.5385H312.863C313.524 110.09 315.95 117.343 320.143 121.299C324.336 125.255 331.174 127.233 340.657 127.233C349.897 127.167 359.123 126.507 368.278 125.258L369.433 132.352C362.592 134.991 352.5 136.31 339.158 136.31C325.7 136.31 316.134 133.096 310.459 126.667C304.785 120.237 301.944 109.383 301.939 94.1026C301.939 78.7136 304.696 67.9133 310.21 61.7017C315.724 55.49 324.933 52.3842 337.84 52.3842C349.195 52.3842 357.575 54.4452 362.98 58.5672C368.384 62.6892 371.141 68.9267 371.25 77.2795C371.474 92.1188 365.357 99.5385 352.899 99.5385ZM312.872 91.2944H350.418C357.471 91.2944 360.889 86.6772 360.671 77.4427C360.561 71.8379 358.741 67.7702 355.208 65.2397C351.676 62.7093 346.053 61.444 338.339 61.444C328.966 61.444 322.403 63.6138 318.653 67.9534C314.902 72.293 312.972 80.0733 312.863 91.2944H312.872Z" fill="white"/>
<path d="M460.3 54.5225L429.698 131.69C429.143 133.377 427.502 134.467 425.726 134.327H415.965C414.189 134.467 412.548 133.377 411.993 131.69L381.391 54.5225H392.643L414.474 112.231C415.135 113.88 416.045 116.353 417.205 119.651C418.366 122.948 419.227 125.255 419.79 126.572H421.944L427.406 112.059L449.238 54.5225H460.3Z" fill="white"/>
<path d="M476.721 134.327V20.5586C485.871 19.6826 498.607 19.2418 514.931 19.2361C528.273 19.2361 537.509 21.6807 542.638 26.5699C547.767 31.4591 550.332 40.6191 550.332 54.0501C550.332 67.4639 547.822 76.624 542.802 81.5303C537.782 86.4367 528.879 88.8813 516.094 88.8641C506.502 88.8641 496.962 88.4233 487.473 87.5416V134.37L476.721 134.327ZM487.473 79.4178H514.767C524.032 79.309 530.427 77.5228 533.954 74.0591C537.481 70.5955 539.244 63.9172 539.244 54.0243C539.244 44.0227 537.481 37.2614 533.954 33.7405C530.427 30.2196 524.032 28.462 514.767 28.4677C505.394 28.4677 496.296 28.5765 487.473 28.7941V79.4178Z" fill="white"/>
<path d="M572.5 61.8305C578.065 55.5329 587.577 52.3842 601.034 52.3842C614.492 52.3842 623.969 55.5329 629.465 61.8305C634.979 68.128 637.736 78.9827 637.736 94.3946C637.736 109.806 634.979 120.632 629.465 126.873C623.951 133.136 614.474 136.268 601.034 136.268C587.594 136.268 578.082 133.119 572.5 126.821C566.928 120.524 564.143 109.723 564.143 94.4203C564.143 79.0371 566.928 68.1738 572.5 61.8305ZM621.177 68.5374C617.427 63.8142 610.701 61.4498 601 61.444C591.299 61.4383 584.573 63.8028 580.822 68.5374C577.072 73.2663 575.196 81.8939 575.196 94.4203C575.196 106.947 577.072 115.574 580.822 120.303C584.567 125.032 591.293 127.397 601 127.397C610.706 127.397 617.432 125.035 621.177 120.312C624.928 115.589 626.803 106.961 626.803 94.4289C626.803 81.8968 624.928 73.2663 621.177 68.5374Z" fill="white"/>
<path d="M659.809 20.8849H664.608C666.905 20.8849 668.054 22.0299 668.054 24.3199V33.8865C668.054 36.1765 666.905 37.3215 664.608 37.3215H659.809C657.512 37.3215 656.363 36.1765 656.363 33.8865V24.3543C656.34 22.0413 657.489 20.8849 659.809 20.8849ZM667.417 134.327H656.992V54.5224H667.417V134.327Z" fill="white"/>
<path d="M698.717 54.5225L699.578 67.713C712.921 57.4881 725.27 52.3756 736.625 52.3756C750.984 52.3756 758.164 59.6865 758.164 74.3083V134.327H747.739V77.1164C747.739 71.5116 746.665 67.504 744.517 65.0938C742.369 62.6836 738.813 61.4756 733.851 61.4698C728.789 61.5152 723.795 62.6395 719.204 64.7675C712.754 67.8335 706.535 71.3607 700.595 75.3216V134.353H689.929V54.5225H698.717Z" fill="white"/>
<path d="M822.78 126.083L824.107 134C818.593 135.111 812.983 135.675 807.358 135.684C794.148 135.684 787.543 129.034 787.543 115.735V62.7665H772.982V55.3469L787.543 54.4881V30.2883H797.967V54.5225H825.098V62.7665H797.967V114.541C797.967 122.235 801.882 126.083 809.71 126.083H822.78Z" fill="white"/>
<path d="M892.376 20.5586V113.218C892.376 121.234 896.345 125.241 904.282 125.241H946.843L947.17 133.485C935.482 134.144 920.594 134.473 902.508 134.473C895.558 134.473 890.319 132.658 886.793 129.028C883.266 125.399 881.503 120.618 881.503 114.687V20.5586H892.376Z" fill="white"/>
<path d="M964.427 63.7541L963.436 56.0253C979.427 53.5979 992.275 52.3842 1001.98 52.3842C1010.6 52.3842 1017.02 54.2791 1021.25 58.0691C1025.49 61.8591 1027.61 68.1567 1027.62 76.9618V134.344H1019.35L1018.02 120.329C1013.47 124.688 1008.23 128.278 1002.52 130.96C996.44 134.029 989.728 135.638 982.916 135.658C975.857 135.658 970.289 133.789 966.211 130.05C962.133 126.312 960.094 120.982 960.094 114.06V104.811C960.094 98.6569 961.914 93.8764 965.556 90.47C969.197 87.0636 974.367 85.3461 981.064 85.3175H1016.96V76.9446C1016.96 71.6661 1015.72 67.7645 1013.23 65.2397C1010.75 62.715 1006.31 61.4498 999.914 61.444C988.053 61.5973 976.208 62.3684 964.427 63.7541ZM970.716 106.125V113.047C970.716 121.949 975.403 126.4 984.777 126.4C989.63 126.509 995.061 125.327 1001.07 122.854C1006.93 120.474 1012.33 117.098 1017.03 112.875V93.7677H982.795C974.743 94.094 970.716 98.216 970.716 106.134V106.125Z" fill="white"/>
<path d="M1059.76 18.8926V50.8813C1059.76 58.5757 1059.37 64.3008 1058.6 68.0564C1069.3 57.6082 1079.88 52.3841 1090.36 52.3841C1100.61 52.3841 1108.03 55.6273 1112.61 62.1138C1117.18 68.6003 1119.48 79.3176 1119.5 94.2657C1119.5 108.887 1116.93 119.55 1111.8 126.254C1106.67 132.958 1097.77 136.311 1085.1 136.311C1072.98 136.328 1060.93 134.491 1049.37 130.866V18.8926H1059.76ZM1059.76 75.1154V124.065C1067.93 126.376 1076.41 127.433 1084.9 127.199C1093.51 127.199 1099.61 124.726 1103.18 119.779C1106.75 114.833 1108.54 106.314 1108.56 94.2227C1108.56 82.0227 1107.04 73.5324 1104.01 68.752C1100.97 63.9716 1095.43 61.5814 1087.38 61.5814C1083.01 61.5966 1078.72 62.7007 1074.89 64.7931C1069.57 67.8196 1064.51 71.2777 1059.76 75.1326V75.1154Z" fill="white"/>
<path d="M1177.27 100.526L1152.75 95.9059C1146.47 94.698 1141.92 92.4079 1139.11 89.0359C1136.29 85.6638 1134.88 80.6888 1134.88 74.1107C1134.88 65.0995 1137.18 59.1912 1141.78 56.3859C1146.37 53.5807 1154.34 52.2467 1165.68 52.3841C1176.63 52.5158 1187.57 53.3418 1198.42 54.8574L1197.42 62.4402C1184.21 61.7818 1174.07 61.4526 1166.99 61.4526C1158.16 61.3438 1152.32 61.9765 1149.45 63.3505C1146.59 64.7245 1145.15 68.3255 1145.15 74.1536C1145.15 78.665 1146.08 81.7966 1147.95 83.5484C1149.83 85.3003 1152.97 86.6199 1157.38 87.5073L1182.03 92.1274C1188.42 93.4442 1193.11 95.7342 1196.09 98.9975C1199.07 102.261 1200.56 107.127 1200.55 113.596C1200.55 122.94 1198.04 129.04 1193.02 131.896C1188 134.753 1179.43 136.185 1167.3 136.19C1157.06 136.236 1146.83 135.519 1136.69 134.043L1137.56 126.315C1146.26 127.082 1155.58 127.411 1165.51 127.302C1175.33 127.193 1181.92 126.286 1185.28 124.58C1188.64 122.874 1190.32 119.218 1190.33 113.614C1190.33 109.325 1189.28 106.303 1187.18 104.545C1185.08 102.787 1181.78 101.448 1177.27 100.526Z" fill="white"/>
<path d="M142.681 136.645L99.7934 20.6101H108.409C111.272 20.5716 113.606 18.3094 113.725 15.4576V5.15251C113.606 2.30074 111.272 0.0385484 108.409 -0.000580991H36.0387C34.6747 -0.0202445 33.3628 0.521049 32.4121 1.49621C31.4615 2.47138 30.9564 3.79411 31.0159 5.15251V15.4576C30.9564 16.816 31.4615 18.1387 32.4121 19.1139C33.3628 20.0891 34.6747 20.6303 36.0387 20.6101H36.1852V5.15251H108.417C108.491 5.19826 108.541 5.27335 108.555 5.35861V15.2429C108.542 15.3307 108.487 15.407 108.409 15.449H92.384L94.9687 22.3792L114.534 75.3215C83.0018 72.7453 79.8743 48.9577 40.019 48.1075L49.4961 22.3448L52.0807 15.4147H41.3545V20.5672H44.6542L34.4621 48.1676L22.7622 79.8644L1.72317 136.645C1.02664 138.441 0.732582 140.367 0.861621 142.287C0.895149 142.714 0.955576 143.139 1.04255 143.558C1.99887 148.075 5.98784 151.15 11.8808 151.15H132.498C141.096 151.141 145.602 144.649 142.681 136.645ZM99.9398 89.3107C107.553 89.3107 113.725 95.4624 113.725 103.051C113.725 110.639 107.553 116.791 99.9398 116.791C92.3267 116.791 86.155 110.639 86.155 103.051C86.155 95.4624 92.3267 89.3107 99.9398 89.3107ZM82.7088 130.531C82.7088 136.222 78.0801 140.836 72.3702 140.836C66.6604 140.836 62.0316 136.222 62.0316 130.531C62.0316 124.84 66.6604 120.226 72.3702 120.226C78.0801 120.226 82.7088 124.84 82.7088 130.531ZM58.5854 68.7005C70.0051 68.7005 79.2626 77.928 79.2626 89.3107C79.2626 100.693 70.0051 109.921 58.5854 109.921C47.1657 109.921 37.9082 100.693 37.9082 89.3107C37.9082 77.928 47.1657 68.7005 58.5854 68.7005Z" fill="white"/>
</g>
<defs>
<clipPath id="clip0_1806_2653">
<rect width="1201" height="152" fill="white"/>
</clipPath>
</defs>
</svg>
