<svg width="355" height="55" viewBox="0 0 355 55" fill="none" xmlns="http://www.w3.org/2000/svg">
<rect width="355" height="55" />
<g id="DPS-TextLogo-White">
<g id="DevPoint Studios">
<path d="M74.1865 17.4595C77.8171 17.4595 80.6396 18.4667 82.6541 20.4811C84.6919 22.4721 85.7108 25.3297 85.7108 29.0541C85.7108 32.7784 84.6919 35.6477 82.6541 37.6622C80.6396 39.6532 77.8171 40.6486 74.1865 40.6486H66V17.4595H74.1865ZM74.1865 37.4514C76.6459 37.4514 78.5198 36.7252 79.8081 35.273C81.1198 33.7973 81.7757 31.7243 81.7757 29.0541C81.7757 26.3838 81.1198 24.3225 79.8081 22.8703C78.5198 21.3946 76.6459 20.6568 74.1865 20.6568H69.7595V37.4514H74.1865Z" fill="white"/>
<path d="M98.4904 41C96.7336 41 95.1877 40.6369 93.8526 39.9108C92.5174 39.1847 91.4751 38.1423 90.7255 36.7838C89.9994 35.4018 89.6363 33.7622 89.6363 31.8649C89.6363 29.9676 89.9994 28.3396 90.7255 26.9811C91.4751 25.5991 92.5057 24.545 93.8174 23.8189C95.1291 23.0928 96.6165 22.7297 98.2796 22.7297C99.9895 22.7297 101.442 23.0811 102.636 23.7838C103.831 24.4865 104.744 25.4468 105.377 26.6649C106.009 27.8829 106.326 29.2649 106.326 30.8108C106.326 31.2324 106.314 31.6306 106.29 32.0054C106.267 32.3802 106.232 32.7081 106.185 32.9892H92.0607V30.1081H104.534L102.671 30.6703C102.671 29.0775 102.273 27.8595 101.477 27.0162C100.68 26.1495 99.5913 25.7162 98.2093 25.7162C97.2021 25.7162 96.3237 25.9505 95.5742 26.4189C94.8246 26.8874 94.2508 27.5901 93.8526 28.527C93.4544 29.4405 93.2553 30.5649 93.2553 31.9C93.2553 33.2117 93.4661 34.3243 93.8877 35.2378C94.3093 36.1513 94.9066 36.8423 95.6796 37.3108C96.4526 37.7793 97.3661 38.0135 98.4201 38.0135C99.5913 38.0135 100.54 37.791 101.266 37.3459C101.992 36.9009 102.566 36.2802 102.988 35.4838L105.974 36.8892C105.553 37.7324 104.979 38.4703 104.253 39.1027C103.55 39.7117 102.707 40.1802 101.723 40.5081C100.739 40.836 99.6616 41 98.4904 41Z" fill="white"/>
<path d="M122.118 23.0811H126.053L119.061 40.6486H114.95L107.923 23.0811H112.034L117.023 37.3811L122.118 23.0811Z" fill="white"/>
<path d="M138.71 17.4595C140.373 17.4595 141.802 17.7523 142.996 18.3378C144.214 18.9234 145.163 19.755 145.842 20.8324C146.521 21.9099 146.861 23.2099 146.861 24.7324C146.861 26.2315 146.521 27.5315 145.842 28.6324C145.163 29.7099 144.214 30.5414 142.996 31.127C141.802 31.7126 140.373 32.0054 138.71 32.0054H133.545V40.6486H129.785V17.4595H138.71ZM138.112 28.773C139.775 28.773 140.993 28.4333 141.766 27.7541C142.563 27.0514 142.961 26.0441 142.961 24.7324C142.961 23.3973 142.563 22.3901 141.766 21.7108C140.993 21.0081 139.775 20.6568 138.112 20.6568H133.545V28.773H138.112Z" fill="white"/>
<path d="M158.533 22.7297C160.243 22.7297 161.754 23.0928 163.066 23.8189C164.377 24.545 165.396 25.5991 166.123 26.9811C166.872 28.3396 167.247 29.9676 167.247 31.8649C167.247 33.7622 166.872 35.4018 166.123 36.7838C165.396 38.1423 164.377 39.1847 163.066 39.9108C161.754 40.6369 160.243 41 158.533 41C156.823 41 155.313 40.6369 154.001 39.9108C152.689 39.1847 151.659 38.1423 150.909 36.7838C150.159 35.4018 149.785 33.7622 149.785 31.8649C149.785 29.9676 150.159 28.3396 150.909 26.9811C151.659 25.5991 152.689 24.545 154.001 23.8189C155.313 23.0928 156.823 22.7297 158.533 22.7297ZM158.533 25.6811C157.479 25.6811 156.577 25.927 155.828 26.4189C155.102 26.8874 154.54 27.5784 154.141 28.4919C153.743 29.4054 153.544 30.5297 153.544 31.8649C153.544 33.1766 153.743 34.3009 154.141 35.2378C154.54 36.1513 155.102 36.8541 155.828 37.3459C156.577 37.8144 157.479 38.0486 158.533 38.0486C159.587 38.0486 160.477 37.8144 161.204 37.3459C161.93 36.8541 162.492 36.1513 162.89 35.2378C163.288 34.3009 163.487 33.1766 163.487 31.8649C163.487 30.5297 163.288 29.4054 162.89 28.4919C162.492 27.5784 161.93 26.8874 161.204 26.4189C160.477 25.927 159.587 25.6811 158.533 25.6811Z" fill="white"/>
<path d="M173.874 20.1297C173.054 20.1297 172.421 19.9306 171.976 19.5324C171.555 19.1108 171.344 18.5252 171.344 17.7757C171.344 17.0261 171.555 16.4523 171.976 16.0541C172.421 15.6559 173.054 15.4568 173.874 15.4568C174.67 15.4568 175.279 15.6559 175.701 16.0541C176.146 16.4523 176.368 17.0261 176.368 17.7757C176.368 18.5252 176.146 19.1108 175.701 19.5324C175.279 19.9306 174.67 20.1297 173.874 20.1297ZM175.736 23.0811V40.6486H171.976V23.0811H175.736Z" fill="white"/>
<path d="M181.618 40.6486V23.0811H184.956L185.202 27.6486L184.71 27.1568C185.038 26.1495 185.506 25.318 186.115 24.6622C186.748 23.9829 187.485 23.491 188.329 23.1865C189.195 22.882 190.109 22.7297 191.069 22.7297C192.311 22.7297 193.423 22.9757 194.407 23.4676C195.414 23.936 196.211 24.6505 196.796 25.6108C197.382 26.5712 197.675 27.7892 197.675 29.2649V40.6486H193.915V30.4243C193.915 28.691 193.552 27.4964 192.826 26.8405C192.123 26.1613 191.233 25.8216 190.156 25.8216C189.383 25.8216 188.633 26.009 187.907 26.3838C187.181 26.7351 186.572 27.309 186.08 28.1054C185.612 28.9018 185.377 29.9676 185.377 31.3027V40.6486H181.618Z" fill="white"/>
<path d="M208.295 17.9162V35.3784C208.295 36.245 208.518 36.8775 208.963 37.2757C209.431 37.6739 210.052 37.873 210.825 37.873C211.458 37.873 212.008 37.7793 212.476 37.5919C212.945 37.3811 213.378 37.1 213.776 36.7486L214.62 39.4892C214.081 39.9577 213.413 40.3324 212.617 40.6135C211.844 40.8712 210.977 41 210.017 41C209.01 41 208.085 40.836 207.241 40.5081C206.398 40.1802 205.742 39.6532 205.274 38.927C204.805 38.1775 204.559 37.2054 204.536 36.0108V18.9703L208.295 17.9162ZM214.339 23.0811V26.0324H201.163V23.0811H214.339Z" fill="white"/>
<path d="M237.81 17.1081C239.848 17.1081 241.604 17.5297 243.08 18.373C244.556 19.1928 245.785 20.4108 246.769 22.027L244.415 23.8541C243.548 22.355 242.565 21.3009 241.464 20.6919C240.386 20.0595 239.075 19.7432 237.529 19.7432C236.287 19.7432 235.257 19.9189 234.437 20.2703C233.64 20.6216 233.055 21.0901 232.68 21.6757C232.305 22.2378 232.118 22.882 232.118 23.6081C232.118 24.4279 232.375 25.1541 232.891 25.7865C233.406 26.3955 234.437 26.8757 235.983 27.227L241.007 28.3514C243.232 28.8432 244.778 29.5928 245.645 30.6C246.535 31.5838 246.98 32.8135 246.98 34.2892C246.98 35.6009 246.605 36.7721 245.856 37.8027C245.13 38.8099 244.099 39.5946 242.764 40.1568C241.429 40.7189 239.859 41 238.056 41C236.369 41 234.882 40.7775 233.593 40.3324C232.329 39.864 231.239 39.2432 230.326 38.4703C229.412 37.6973 228.663 36.8306 228.077 35.8703L230.537 33.8676C230.982 34.7577 231.556 35.5423 232.258 36.2216C232.961 36.9009 233.804 37.4279 234.788 37.8027C235.795 38.1775 236.943 38.3649 238.231 38.3649C239.426 38.3649 240.457 38.2243 241.323 37.9432C242.213 37.6387 242.893 37.2054 243.361 36.6432C243.83 36.0577 244.064 35.355 244.064 34.5351C244.064 33.7856 243.818 33.118 243.326 32.5324C242.834 31.9234 241.909 31.4667 240.55 31.1622L235.104 29.9324C233.675 29.6045 232.516 29.1595 231.626 28.5973C230.759 28.0117 230.127 27.3324 229.729 26.5595C229.354 25.7631 229.166 24.9081 229.166 23.9946C229.166 22.7532 229.506 21.6171 230.185 20.5865C230.888 19.5324 231.884 18.6892 233.172 18.0568C234.484 17.4243 236.03 17.1081 237.81 17.1081Z" fill="white"/>
<path d="M256.488 18.0919V35.8C256.488 36.6667 256.734 37.3108 257.226 37.7324C257.718 38.1541 258.351 38.3649 259.124 38.3649C259.803 38.3649 260.388 38.2477 260.88 38.0135C261.372 37.7793 261.817 37.4631 262.215 37.0649L263.199 39.4189C262.66 39.9108 262.016 40.2973 261.267 40.5784C260.541 40.8595 259.697 41 258.737 41C257.847 41 257.015 40.8477 256.242 40.5432C255.47 40.2153 254.849 39.7117 254.38 39.0324C253.935 38.3297 253.701 37.4162 253.678 36.2919V18.8649L256.488 18.0919ZM262.883 23.0811V25.5054H250.164V23.0811H262.883Z" fill="white"/>
<path d="M273.422 41C272.297 41 271.232 40.7892 270.224 40.3676C269.241 39.9459 268.432 39.2667 267.8 38.3297C267.191 37.3694 266.886 36.1279 266.886 34.6054V23.0811H269.697V33.8676C269.697 35.6477 270.084 36.8775 270.857 37.5568C271.63 38.2126 272.719 38.5405 274.124 38.5405C274.78 38.5405 275.424 38.4351 276.057 38.2243C276.689 37.9901 277.251 37.6387 277.743 37.1703C278.259 36.6784 278.657 36.0577 278.938 35.3081C279.242 34.5586 279.395 33.6685 279.395 32.6378V23.0811H282.205V40.6486H279.746L279.57 37.9784C278.961 39.0324 278.13 39.8054 277.076 40.2973C276.045 40.7658 274.827 41 273.422 41Z" fill="white"/>
<path d="M295.598 41C294.146 41 292.811 40.6369 291.593 39.9108C290.375 39.1847 289.403 38.1423 288.677 36.7838C287.951 35.4018 287.588 33.7622 287.588 31.8649C287.588 29.9207 287.974 28.2694 288.747 26.9108C289.52 25.5523 290.539 24.5216 291.804 23.8189C293.069 23.0928 294.427 22.7297 295.88 22.7297C297.332 22.7297 298.585 23.1045 299.639 23.8541C300.716 24.6036 301.431 25.5991 301.782 26.8405L301.431 27.0865V15H304.242V40.6486H301.782L301.536 36.3973L301.923 36.1865C301.759 37.2171 301.361 38.0955 300.728 38.8216C300.119 39.5243 299.358 40.0631 298.444 40.4378C297.554 40.8126 296.606 41 295.598 41ZM295.88 38.5405C297.004 38.5405 297.976 38.2595 298.796 37.6973C299.639 37.1351 300.283 36.3387 300.728 35.3081C301.197 34.2541 301.431 33.0243 301.431 31.6189C301.431 30.2838 301.197 29.136 300.728 28.1757C300.283 27.2153 299.651 26.4775 298.831 25.9622C298.035 25.4468 297.098 25.1892 296.02 25.1892C294.24 25.1892 292.858 25.7982 291.874 27.0162C290.89 28.2342 290.398 29.8504 290.398 31.8649C290.398 33.8793 290.879 35.4955 291.839 36.7135C292.799 37.9315 294.146 38.5405 295.88 38.5405Z" fill="white"/>
<path d="M312.181 19.7081C311.548 19.7081 311.033 19.5207 310.635 19.1459C310.26 18.7477 310.073 18.2324 310.073 17.6C310.073 16.9676 310.26 16.464 310.635 16.0892C311.033 15.691 311.548 15.4919 312.181 15.4919C312.813 15.4919 313.317 15.691 313.691 16.0892C314.09 16.464 314.289 16.9676 314.289 17.6C314.289 18.2324 314.09 18.7477 313.691 19.1459C313.317 19.5207 312.813 19.7081 312.181 19.7081ZM313.586 23.0811V40.6486H310.775V23.0811H313.586Z" fill="white"/>
<path d="M327.381 22.7297C329.044 22.7297 330.508 23.0928 331.773 23.8189C333.061 24.545 334.068 25.5991 334.794 26.9811C335.521 28.3396 335.884 29.9676 335.884 31.8649C335.884 33.7622 335.521 35.4018 334.794 36.7838C334.068 38.1423 333.061 39.1847 331.773 39.9108C330.508 40.6369 329.044 41 327.381 41C325.741 41 324.277 40.6369 322.989 39.9108C321.701 39.1847 320.694 38.1423 319.967 36.7838C319.241 35.4018 318.878 33.7622 318.878 31.8649C318.878 29.9676 319.241 28.3396 319.967 26.9811C320.694 25.5991 321.701 24.545 322.989 23.8189C324.277 23.0928 325.741 22.7297 327.381 22.7297ZM327.381 25.1541C326.186 25.1541 325.167 25.4234 324.324 25.9622C323.481 26.5009 322.825 27.2739 322.357 28.2811C321.912 29.2649 321.689 30.4595 321.689 31.8649C321.689 33.2468 321.912 34.4414 322.357 35.4486C322.825 36.4559 323.481 37.2288 324.324 37.7676C325.167 38.3063 326.186 38.5757 327.381 38.5757C328.576 38.5757 329.594 38.3063 330.438 37.7676C331.281 37.2288 331.925 36.4559 332.37 35.4486C332.839 34.4414 333.073 33.2468 333.073 31.8649C333.073 30.4595 332.839 29.2649 332.37 28.2811C331.925 27.2739 331.281 26.5009 330.438 25.9622C329.594 25.4234 328.576 25.1541 327.381 25.1541Z" fill="white"/>
<path d="M347.5 41C345.79 41 344.209 40.6369 342.756 39.9108C341.328 39.1847 340.227 38.1541 339.454 36.8189L341.843 35.0973C342.358 36.1748 343.108 37.018 344.092 37.627C345.099 38.236 346.305 38.5405 347.711 38.5405C348.952 38.5405 349.924 38.3063 350.627 37.8378C351.329 37.3459 351.681 36.7135 351.681 35.9405C351.681 35.4486 351.517 35.0036 351.189 34.6054C350.884 34.1838 350.287 33.8793 349.397 33.6919L345.181 32.8135C343.471 32.4622 342.241 31.8766 341.492 31.0568C340.765 30.2369 340.402 29.218 340.402 28C340.402 27.0396 340.672 26.1613 341.21 25.3649C341.773 24.5685 342.557 23.936 343.565 23.4676C344.595 22.9757 345.801 22.7297 347.183 22.7297C348.917 22.7297 350.381 23.0694 351.575 23.7486C352.77 24.4279 353.66 25.3883 354.246 26.6297L351.892 28.1757C351.493 27.145 350.849 26.3955 349.959 25.927C349.069 25.4351 348.144 25.1892 347.183 25.1892C346.34 25.1892 345.614 25.3063 345.005 25.5405C344.419 25.7748 343.963 26.1027 343.635 26.5243C343.33 26.9225 343.178 27.3793 343.178 27.8946C343.178 28.4099 343.354 28.8901 343.705 29.3351C344.056 29.7568 344.712 30.0613 345.673 30.2486L350.065 31.1622C351.704 31.4901 352.852 32.0288 353.508 32.7784C354.164 33.5279 354.492 34.4414 354.492 35.5189C354.492 36.6198 354.199 37.5919 353.613 38.4351C353.028 39.255 352.208 39.8874 351.154 40.3324C350.1 40.7775 348.882 41 347.5 41Z" fill="white"/>
</g>
<path id="Body" d="M20 23C13.3726 23 8 28.3726 8 35C8 41.6274 13.3726 47 20 47H38C44.6274 47 50 41.6274 50 35V23H20Z" fill="white"/>
<circle id="Head" cx="23" cy="17" r="9" fill="white"/>
<path id="Bill" d="M9.71431 20.4286H12.2857C12.2857 20.4286 12.2857 20.4286 12.2857 20.4286C13.2325 20.4286 14 19.6611 14 18.7143C14 18.7094 14 18.7045 14 18.6995V17H9.71431C8.76754 17 8 17.7675 8 18.7143C8 19.6611 8.76754 20.4286 9.71431 20.4286Z" fill="white"/>
<path id="Wing" d="M29.4286 32C27.535 32 26 33.535 26 35.4286C26 37.3221 27.535 38.8571 29.4286 38.8571H34.5714C36.465 38.8571 38 37.3221 38 35.4286V32H29.4286Z" fill="white"/>
</g>
</svg>
