<svg width="280" height="115" viewBox="0 0 280 115" fill="none" xmlns="http://www.w3.org/2000/svg">
<g clip-path="url(#clip0_1807_2669)">
<path fill-rule="evenodd" clip-rule="evenodd" d="M42.0488 83.0658C42.0488 90.556 35.9091 97.9865 30.7708 97.9426C27.9044 97.9426 26.1057 97.2644 26.1057 91.8726V72.9383C26.1057 69.3322 25.583 68.5722 23.1641 65.9228L3.71456 46.4319C1.27456 43.9912 0.592529 42.3736 0.592529 38.6834C0.592529 37.5607 0.618292 27.0753 0.618292 27.0753C0.618292 24.5044 2.17083 21.7621 5.22236 20.9465C16.3335 18.9641 23.3186 18.3621 34.4346 18.3065C45.4732 18.2529 52.4007 18.756 63.3796 20.9465C66.6746 21.8272 67.9824 24.4292 67.9824 27.0753C67.9824 32.156 68.0081 33.6034 68.0081 38.6834C68.0081 42.3736 67.3274 43.9912 64.8861 46.4319L45.0264 65.9228C42.6074 68.5722 42.0874 69.3322 42.0874 72.9383L42.0488 83.0658ZM34.4508 22.3533C26.7891 22.3899 17.3424 22.9472 9.60677 23.9628C9.27524 24.0489 9.41151 24.7438 9.63456 24.7438C25.0481 26.3472 43.8352 26.316 58.9654 24.7411C59.2779 24.7411 59.3708 23.8048 58.6915 23.8021C58.5139 23.7905 46.4149 22.2943 34.4508 22.3533Z" fill="white"/>
<path fill-rule="evenodd" clip-rule="evenodd" d="M210.532 40.6631C201.413 40.541 192.217 47.8238 192.217 62.5071V84.4095C192.217 85.4482 193.069 86.2976 194.106 86.2976H196.499C197.537 86.2976 198.386 85.4482 198.386 84.4095V62.5071C198.386 51.9641 204.346 46.6909 210.304 46.6909C216.262 46.6909 222.223 51.9607 222.223 62.5071V84.4095C222.223 85.4495 223.069 86.2976 224.108 86.2976H226.5C227.538 86.2976 228.389 85.4482 228.389 84.4095V62.5071C228.389 48.0631 219.497 40.7838 210.532 40.6631ZM170.043 40.6631C160.928 40.541 151.731 47.8238 151.731 62.5071V84.4095C151.731 85.4482 152.582 86.2976 153.618 86.2976H156.012C157.048 86.2976 157.898 85.4482 157.898 84.4095V62.5071C157.898 51.9641 163.858 46.6909 169.816 46.6909C175.776 46.6909 181.736 51.9607 181.736 62.5071V84.4095C181.736 85.4495 182.584 86.2976 183.62 86.2976H186.014C187.051 86.2976 187.9 85.4482 187.9 84.4095V62.5071C187.9 48.0631 179.01 40.7838 170.043 40.6631ZM266.985 40.6631H264.595C263.557 40.6631 262.708 41.5126 262.708 42.5526V64.4536C262.708 74.998 256.748 80.2699 250.789 80.2699C244.831 80.2719 238.871 74.9993 238.871 64.4536V42.5526C238.871 41.5126 238.022 40.6631 236.986 40.6631H234.592C233.555 40.6631 232.705 41.5126 232.705 42.5526V64.4536C232.705 78.8976 241.596 86.1783 250.561 86.2976C259.678 86.4204 268.876 79.1376 268.876 64.4536V42.5526C268.876 41.5126 268.023 40.6631 266.985 40.6631ZM145.528 40.6631H143.136C142.097 40.6631 141.246 41.5126 141.246 42.5526L141.248 64.4536C141.248 74.998 135.288 80.2699 129.33 80.2699C123.368 80.2719 117.411 74.9993 117.411 64.4536V42.5526C117.411 41.5126 116.562 40.6631 115.525 40.6631H113.134C112.095 40.6631 111.246 41.5126 111.246 42.5526V64.4536C111.246 78.8976 120.136 86.1783 129.102 86.2976C138.219 86.4204 147.414 79.1376 147.414 64.4536V42.5526C147.414 41.5126 146.563 40.6631 145.528 40.6631ZM277.471 28.3478H275.081C274.043 28.3478 273.193 29.1993 273.193 30.2373V84.4129C273.193 85.4509 274.043 86.301 275.081 86.301H277.471C278.508 86.301 279.358 85.4509 279.358 84.4129V30.2373C279.358 29.1993 278.508 28.3478 277.471 28.3478ZM110.177 30.6983C110.596 31.1288 111.088 31.8461 110.34 32.5573C108.887 34.0143 108.134 35.1844 106.296 34.9112C105.97 34.8638 104.258 34.0617 103.016 33.516C102.997 33.5139 102.976 33.5099 102.955 33.5038C100.408 32.8048 98.0577 33.1987 96.0922 34.3431C92.5872 36.3824 90.3065 40.8095 90.3065 45.6949V47.2766C93.676 47.2766 97.0482 47.2766 100.42 47.2766C101.461 47.2766 102.316 48.1309 102.316 49.1729V51.5729C102.316 52.617 101.461 53.4692 100.42 53.4692C97.0482 53.4692 93.676 53.4732 90.3065 53.4732V84.4177C90.3065 85.4522 89.4597 86.301 88.4217 86.301H86.0367C85.0021 86.301 84.1526 85.4522 84.1526 84.4177C84.1526 71.5099 84.1526 58.6014 84.1526 45.6949C84.1526 38.379 87.7356 32.0149 93.0631 28.9404C98.2238 25.9621 105.784 26.3871 110.177 30.6983Z" fill="white"/>
</g>
<defs>
<clipPath id="clip0_1807_2669">
<rect width="280" height="80" fill="white" transform="translate(0 18)"/>
</clipPath>
</defs>
</svg>
