<svg width="524" height="101" viewBox="0 0 524 101" fill="none" xmlns="http://www.w3.org/2000/svg">
<circle cx="60.5" cy="87.5" r="13.5" fill="#4E7D5B"/>
<path d="M57.0685 5.72857C58.6216 3.13588 62.3784 3.13588 63.9315 5.72857L111.364 84.9134C113.582 88.6157 109.174 92.7208 105.638 90.2457L62.794 60.2512C61.4167 59.2869 59.5833 59.2869 58.206 60.2512L15.3615 90.2457C11.8261 92.7208 7.41833 88.6157 9.63602 84.9134L57.0685 5.72857Z" fill="#4E7D5B"/>
<rect x="20" y="13" width="17" height="61" rx="8.5" fill="#4E7D5B"/>
<path d="M163.032 30.2H173.4V75H163.032V30.2ZM142.68 75H132.312V30.2H142.68V75ZM163.8 56.632H141.912V47.864H163.8V56.632ZM204.416 75V68.28L203.776 66.808V54.776C203.776 52.6427 203.114 50.9787 201.792 49.784C200.512 48.5893 198.528 47.992 195.84 47.992C194.005 47.992 192.192 48.2907 190.4 48.888C188.65 49.4427 187.157 50.2107 185.92 51.192L182.336 44.216C184.213 42.8933 186.474 41.8693 189.12 41.144C191.765 40.4187 194.453 40.056 197.184 40.056C202.432 40.056 206.506 41.2933 209.408 43.768C212.309 46.2427 213.76 50.104 213.76 55.352V75H204.416ZM193.92 75.512C191.232 75.512 188.928 75.064 187.008 74.168C185.088 73.2293 183.616 71.9707 182.592 70.392C181.568 68.8133 181.056 67.0427 181.056 65.08C181.056 63.032 181.546 61.24 182.528 59.704C183.552 58.168 185.152 56.9733 187.328 56.12C189.504 55.224 192.341 54.776 195.84 54.776H204.992V60.6H196.928C194.581 60.6 192.96 60.984 192.064 61.752C191.21 62.52 190.784 63.48 190.784 64.632C190.784 65.912 191.274 66.936 192.256 67.704C193.28 68.4293 194.666 68.792 196.416 68.792C198.08 68.792 199.573 68.408 200.896 67.64C202.218 66.8293 203.178 65.656 203.776 64.12L205.312 68.728C204.586 70.9467 203.264 72.632 201.344 73.784C199.424 74.936 196.949 75.512 193.92 75.512ZM243.148 75.512C240.118 75.512 237.516 74.872 235.34 73.592C233.164 72.312 231.5 70.3707 230.348 67.768C229.196 65.1227 228.62 61.7947 228.62 57.784C228.62 53.7307 229.217 50.4027 230.412 47.8C231.649 45.1973 233.356 43.256 235.532 41.976C237.708 40.696 240.246 40.056 243.148 40.056C246.39 40.056 249.292 40.7813 251.852 42.232C254.454 43.6827 256.502 45.7307 257.996 48.376C259.532 51.0213 260.3 54.1573 260.3 57.784C260.3 61.368 259.532 64.4827 257.996 67.128C256.502 69.7733 254.454 71.8427 251.852 73.336C249.292 74.7867 246.39 75.512 243.148 75.512ZM222.796 75V27.512H232.78V47.544L232.14 57.72L232.332 67.96V75H222.796ZM241.42 67.32C243.084 67.32 244.556 66.936 245.836 66.168C247.158 65.4 248.204 64.312 248.972 62.904C249.782 61.4533 250.188 59.7467 250.188 57.784C250.188 55.7787 249.782 54.072 248.972 52.664C248.204 51.256 247.158 50.168 245.836 49.4C244.556 48.632 243.084 48.248 241.42 48.248C239.756 48.248 238.262 48.632 236.94 49.4C235.617 50.168 234.572 51.256 233.804 52.664C233.036 54.072 232.652 55.7787 232.652 57.784C232.652 59.7467 233.036 61.4533 233.804 62.904C234.572 64.312 235.617 65.4 236.94 66.168C238.262 66.936 239.756 67.32 241.42 67.32ZM266.983 75V40.568H276.967V75H266.983ZM271.975 35.768C270.14 35.768 268.647 35.2347 267.495 34.168C266.343 33.1013 265.767 31.7787 265.767 30.2C265.767 28.6213 266.343 27.2987 267.495 26.232C268.647 25.1653 270.14 24.632 271.975 24.632C273.81 24.632 275.303 25.144 276.455 26.168C277.607 27.1493 278.183 28.4293 278.183 30.008C278.183 31.672 277.607 33.0587 276.455 34.168C275.346 35.2347 273.852 35.768 271.975 35.768ZM300.313 75.512C296.26 75.512 293.102 74.488 290.841 72.44C288.58 70.3493 287.449 67.256 287.449 63.16V32.952H297.433V63.032C297.433 64.4827 297.817 65.6133 298.585 66.424C299.353 67.192 300.398 67.576 301.721 67.576C303.3 67.576 304.644 67.1493 305.753 66.296L308.441 73.336C307.417 74.0613 306.18 74.616 304.729 75C303.321 75.3413 301.849 75.512 300.313 75.512ZM282.137 49.016V41.336H306.009V49.016H282.137ZM335.166 75V68.28L334.526 66.808V54.776C334.526 52.6427 333.864 50.9787 332.542 49.784C331.262 48.5893 329.278 47.992 326.59 47.992C324.755 47.992 322.942 48.2907 321.15 48.888C319.4 49.4427 317.907 50.2107 316.67 51.192L313.086 44.216C314.963 42.8933 317.224 41.8693 319.87 41.144C322.515 40.4187 325.203 40.056 327.934 40.056C333.182 40.056 337.256 41.2933 340.158 43.768C343.059 46.2427 344.51 50.104 344.51 55.352V75H335.166ZM324.67 75.512C321.982 75.512 319.678 75.064 317.758 74.168C315.838 73.2293 314.366 71.9707 313.342 70.392C312.318 68.8133 311.806 67.0427 311.806 65.08C311.806 63.032 312.296 61.24 313.278 59.704C314.302 58.168 315.902 56.9733 318.078 56.12C320.254 55.224 323.091 54.776 326.59 54.776H335.742V60.6H327.678C325.331 60.6 323.71 60.984 322.814 61.752C321.96 62.52 321.534 63.48 321.534 64.632C321.534 65.912 322.024 66.936 323.006 67.704C324.03 68.4293 325.416 68.792 327.166 68.792C328.83 68.792 330.323 68.408 331.646 67.64C332.968 66.8293 333.928 65.656 334.526 64.12L336.062 68.728C335.336 70.9467 334.014 72.632 332.094 73.784C330.174 74.936 327.699 75.512 324.67 75.512ZM367.626 75.512C363.572 75.512 360.415 74.488 358.154 72.44C355.892 70.3493 354.762 67.256 354.762 63.16V32.952H364.746V63.032C364.746 64.4827 365.13 65.6133 365.898 66.424C366.666 67.192 367.711 67.576 369.034 67.576C370.612 67.576 371.956 67.1493 373.066 66.296L375.754 73.336C374.73 74.0613 373.492 74.616 372.042 75C370.634 75.3413 369.162 75.512 367.626 75.512ZM349.45 49.016V41.336H373.322V49.016H349.45ZM376.878 75L397.358 30.2H402.03L422.51 75H417.518L398.702 32.952H400.622L381.806 75H376.878ZM384.942 63.032L386.35 59.192H412.398L413.806 63.032H384.942ZM429.921 75V30.2H433.825L454.305 65.144H452.257L472.545 30.2H476.449V75H471.905V37.304H472.993L454.305 69.304H452.065L433.249 37.304H434.465V75H429.921ZM503.398 75.384C500.07 75.384 496.87 74.8507 493.798 73.784C490.769 72.6747 488.422 71.2667 486.758 69.56L488.614 65.912C490.193 67.448 492.305 68.7493 494.95 69.816C497.638 70.84 500.454 71.352 503.398 71.352C506.214 71.352 508.497 71.0107 510.246 70.328C512.038 69.6027 513.339 68.6427 514.15 67.448C515.003 66.2533 515.43 64.9307 515.43 63.48C515.43 61.7307 514.918 60.3227 513.894 59.256C512.913 58.1893 511.611 57.3573 509.99 56.76C508.369 56.12 506.577 55.5653 504.614 55.096C502.651 54.6267 500.689 54.136 498.726 53.624C496.763 53.0693 494.95 52.344 493.286 51.448C491.665 50.552 490.342 49.3787 489.318 47.928C488.337 46.4347 487.846 44.4933 487.846 42.104C487.846 39.8853 488.422 37.8587 489.574 36.024C490.769 34.1467 492.582 32.6533 495.014 31.544C497.446 30.392 500.561 29.816 504.358 29.816C506.875 29.816 509.371 30.1787 511.846 30.904C514.321 31.5867 516.454 32.5467 518.246 33.784L516.646 37.56C514.726 36.28 512.678 35.3413 510.502 34.744C508.369 34.1467 506.299 33.848 504.294 33.848C501.606 33.848 499.387 34.2107 497.638 34.936C495.889 35.6613 494.587 36.6427 493.734 37.88C492.923 39.0747 492.518 40.44 492.518 41.976C492.518 43.7253 493.009 45.1333 493.99 46.2C495.014 47.2667 496.337 48.0987 497.958 48.696C499.622 49.2933 501.435 49.8267 503.398 50.296C505.361 50.7653 507.302 51.2773 509.222 51.832C511.185 52.3867 512.977 53.112 514.598 54.008C516.262 54.8613 517.585 56.0133 518.566 57.464C519.59 58.9147 520.102 60.8133 520.102 63.16C520.102 65.336 519.505 67.3627 518.31 69.24C517.115 71.0747 515.281 72.568 512.806 73.72C510.374 74.8293 507.238 75.384 503.398 75.384Z" fill="#529D63"/>
</svg>
