<svg width="139" height="115" viewBox="0 0 139 115" fill="none" xmlns="http://www.w3.org/2000/svg">
<path d="M133.99 46.7142C133.99 38.1428 127.262 31.2856 118.673 31.2856C110.083 31.2856 103.212 38.1428 103.212 46.7142C103.212 55.2856 110.083 62.1428 118.673 62.1428C122.251 62.1428 125.687 60.8571 128.264 58.7142V59.1428C128.264 60.7142 129.552 61.9999 131.127 61.9999C132.701 61.9999 133.99 60.7142 133.99 59.1428V47.8571C133.99 47.7142 133.99 46.9999 133.99 46.7142ZM118.673 56.2856C113.376 56.2856 109.081 51.9999 109.081 46.7142C109.081 41.4285 113.376 37.1428 118.673 37.1428C123.969 37.1428 128.264 41.4285 128.264 46.7142C128.264 51.9999 123.969 56.2856 118.673 56.2856Z" fill="#FC9183"/>
<path d="M32.352 62.1428C35.9308 62.1428 39.3665 60.8571 41.9432 58.7142V59.1428C41.9432 60.7143 43.2315 62 44.8062 62C46.3809 62 47.6692 60.7143 47.6692 59.1428V46.5714C47.6692 38 40.798 31.1428 32.2089 31.1428C23.6198 31.1428 16.7485 38 16.7485 46.5714C16.7485 55.1428 23.9061 62.1428 32.352 62.1428ZM32.352 37.1428C37.6486 37.1428 41.9432 41.4285 41.9432 46.7143C41.9432 52 37.6486 56.2857 32.352 56.2857C27.0554 56.2857 22.7609 52 22.7609 46.7143C22.7609 41.4285 27.0554 37.1428 32.352 37.1428Z" fill="#FC9183"/>
<path d="M82.1687 31.2856C80.5941 31.2856 79.3057 32.5714 79.3057 34.1428V38.4285V46.7142C79.3057 51.9999 75.0112 56.2856 69.7146 56.2856C64.418 56.2856 60.1234 51.9999 60.1234 46.7142V34.1428C60.1234 32.5714 58.8351 31.2856 57.2604 31.2856C55.6857 31.2856 54.3974 32.5714 54.3974 34.1428V46.7142C54.3974 55.2856 61.2686 62.1428 69.8577 62.1428C73.4365 62.1428 76.8721 60.8571 79.4489 58.7142V80.5714C79.4489 95.4285 67.281 107.571 52.3932 107.571C37.5055 107.571 25.3376 95.4285 25.3376 80.5714C25.3376 78.9999 24.0493 77.7142 22.4746 77.7142C20.8999 77.7142 19.6116 78.9999 19.6116 80.5714C19.6116 98.7142 34.3562 113.428 52.5364 113.428C70.7166 113.428 85.4612 98.7142 85.4612 80.5714V46.7142V38.4285V34.1428C85.4612 31.9999 83.7434 31.2856 82.1687 31.2856Z" fill="#FC9183"/>
<path d="M97.3427 52.9999V6.57138C97.3427 4.99995 96.0544 3.71423 94.4797 3.71423C92.9051 3.71423 91.6167 4.99995 91.6167 6.57138V53.1428C91.6167 56.2857 92.7619 59.1428 95.0523 61.4285C95.6249 61.9999 96.3407 62.2857 97.0564 62.2857C97.7722 62.2857 98.488 61.9999 99.0606 61.4285C100.206 60.2857 100.206 58.4285 99.0606 57.2857C97.9153 55.9999 97.3427 54.5714 97.3427 52.9999Z" fill="#FC9183"/>
<path d="M11.1658 52.9999V6.57138C11.1658 4.99995 9.87739 3.71423 8.30273 3.71423C6.72806 3.71423 5.4397 4.99995 5.4397 6.57138V53.1428C5.4397 56.2857 6.58491 59.1428 8.87533 61.4285C9.44794 61.9999 10.1637 62.2857 10.8795 62.2857C11.5952 62.2857 12.311 61.9999 12.8836 61.4285C14.0288 60.2857 14.0288 58.4285 12.8836 57.2857C11.7384 55.9999 11.1658 54.5714 11.1658 52.9999Z" fill="#FC9183"/>
<path d="M33.4974 78.8571C33.4974 78.8571 33.068 79.2857 32.9248 79.4286C32.9248 79.4286 32.9248 80.5714 32.9248 80.7143C32.9248 91.2857 41.657 99.8571 52.2502 99.8571C62.7003 99.8571 71.2894 91.4286 71.5757 81C71.5757 80.8571 71.5757 80.7143 71.5757 80.7143C71.5757 80.7143 71.5757 78.1428 71.4325 76.5714C71.1462 71.5714 66.8517 67.5714 61.8414 67.5714C57.1174 67.5714 53.2523 70.8571 52.2502 75.1428C46.381 73.5714 39.7961 73.2857 33.4974 78.8571ZM61.5551 73.5714C63.7024 73.5714 65.4202 75.2857 65.4202 77.4286V79.5714C64.275 79.8571 62.414 79.4286 57.69 77.5714C57.69 75.2857 59.4078 73.5714 61.5551 73.5714ZM53.5386 82C54.2544 82.2857 61.8414 85.2857 64.7044 85.2857C62.8434 90.5714 57.8331 94.2857 51.9639 94.2857C44.9495 94.2857 39.2235 89 38.5077 82.1428C43.518 78.5714 48.3852 80 53.5386 82Z" fill="#FC9183"/>
</svg>
