<svg width="280" height="115" viewBox="0 0 280 115" fill="none" xmlns="http://www.w3.org/2000/svg">
<g clip-path="url(#clip0_1807_2675)">
<path d="M0 82.7619L6.44791 69.6748C12.3865 73.0665 19.2262 75.7059 26.4522 75.7059C31.3553 75.7059 33.8069 74.4517 33.8069 71.5615C33.8069 69.2986 32.1276 68.1643 28.6462 66.5286L17.9333 62.0025C8.51327 57.9838 4.50011 52.1872 4.50011 44.6566C4.50011 33.3417 12.6272 27.0544 27.594 27.0544C34.4338 27.0544 41.7884 28.5649 48.7569 31.0787L43.4676 44.0296C38.0493 41.7665 32.1109 40.0052 26.676 40.0052C22.0304 40.0052 20.6087 41.3903 20.6087 43.5223C20.6087 45.7854 22.1591 47.0449 26.2898 48.8063L36.9971 53.3323C45.3929 56.7241 50.1618 61.6263 50.1618 70.302C50.1618 83.1274 40.3556 88.9074 25.5342 88.9074C17.2896 88.9237 7.8696 87.0372 0 82.7619Z" fill="white"/>
<path d="M121.682 58.0001C121.682 76.2293 107.617 88.9239 88.6591 88.9239C69.7015 88.9239 55.6357 76.2293 55.6357 58.0001C55.6357 39.7709 69.7015 27.0708 88.6591 27.0708C107.617 27.0708 121.682 39.7709 121.682 58.0001ZM71.8675 58.0001C71.8675 67.93 78.9646 74.359 88.6591 74.359C98.3533 74.359 105.305 67.9463 105.305 58.0001C105.305 48.0539 98.3364 41.6411 88.6591 41.6411C78.9815 41.6411 71.8731 48.0646 71.8731 58.0001H71.8675Z" fill="white"/>
<path d="M148.006 14V102H132.132V14H148.006Z" fill="white"/>
<path d="M224.782 58.0001C224.782 76.2293 210.716 88.9239 191.758 88.9239C172.801 88.9239 158.735 76.2293 158.735 58.0001C158.735 39.7709 172.801 27.0708 191.758 27.0708C210.716 27.0708 224.782 39.7709 224.782 58.0001ZM174.967 58.0001C174.967 67.93 182.064 74.359 191.758 74.359C201.453 74.359 208.404 67.9463 208.404 58.0001C208.404 48.0539 201.436 41.6411 191.758 41.6411C182.081 41.6411 174.973 48.0646 174.973 58.0001H174.967Z" fill="white"/>
<path d="M229.169 82.7619L235.618 69.6748C241.556 73.0665 248.396 75.7059 255.622 75.7059C260.525 75.7059 262.978 74.4517 262.978 71.5615C262.978 69.2986 261.298 68.1643 257.816 66.5286L247.102 62.0025C237.682 57.9838 233.671 52.1872 233.671 44.6566C233.671 33.3417 241.798 27.0544 256.765 27.0544C263.605 27.0544 270.958 28.5649 277.927 31.0787L272.638 44.0296C267.22 41.7665 261.28 40.0052 255.847 40.0052C251.2 40.0052 249.778 41.3903 249.778 43.5223C249.778 45.7854 251.329 47.0449 255.46 48.8063L266.167 53.3323C274.562 56.7241 279.331 61.6263 279.331 70.302C279.331 83.1274 269.524 88.9074 254.704 88.9074C246.46 88.9237 237.04 87.0372 229.169 82.7619Z" fill="white"/>
</g>
<defs>
<clipPath id="clip0_1807_2675">
<rect width="280" height="88" fill="white" transform="translate(0 14)"/>
</clipPath>
</defs>
</svg>
