<svg xmlns="http://www.w3.org/2000/svg" viewBox="0 0 100 37" focusable="false" class="chakra-icon chakra-icon css-17uhxl3" aria-hidden="true"><g><path d="M39.5074 12.2277H33.1984V8.24805H50.3644V12.2277H44.0235V30.6649H39.5074V12.2277Z" fill="#2D3748"></path><path d="M65.4394 15.2646V30.6788H61.4275V28.8142H61.3494C60.2274 30.2335 58.6594 30.9432 56.6451 30.9432C55.6116 30.9513 54.5868 30.7574 53.6308 30.3726C52.7288 30.0107 51.9146 29.4666 51.2414 28.7759C50.5486 28.0532 50.0156 27.1982 49.6757 26.2643C48.9183 24.1725 48.9183 21.8891 49.6757 19.7973C50.0165 18.8584 50.5425 17.9944 51.2237 17.2544C51.8976 16.5415 52.7149 15.9731 53.6242 15.5852C54.5335 15.1972 55.5149 14.998 56.5066 15.0002C57.3844 14.9709 58.2576 15.1362 59.0611 15.4837C59.8646 15.8313 60.5776 16.3521 61.147 17.0074H61.2109V15.2681L65.4394 15.2646ZM60.2487 26.0695C60.6352 25.6626 60.9355 25.1847 61.1324 24.6635C61.3292 24.1422 61.4186 23.5879 61.3955 23.0326C61.4344 21.9023 61.0319 20.8 60.27 19.9504C59.9187 19.5525 59.4818 19.2358 58.9907 19.0229C58.4996 18.81 57.9666 18.7062 57.4297 18.7189C56.8899 18.7059 56.3533 18.8049 55.8553 19.0093C55.3572 19.2138 54.9089 19.5191 54.5397 19.9052C54.1465 20.3269 53.8421 20.8206 53.6441 21.3579C53.4461 21.8951 53.3583 22.4654 53.3859 23.036C53.3371 24.1536 53.7403 25.2449 54.5078 26.073C54.8831 26.4444 55.3299 26.7393 55.8223 26.9406C56.3147 27.1419 56.843 27.2455 57.3765 27.2455C57.91 27.2455 58.4382 27.1419 58.9306 26.9406C59.423 26.7393 59.8698 26.4444 60.2452 26.073L60.2487 26.0695Z" fill="#2D3748"></path><path d="M69.1247 7.43402H73.3425V30.6788H69.1247V7.43402Z" fill="#2D3748"></path><path d="M77.3402 7.43402H81.5545V30.6788H77.3402V7.43402Z" fill="#2D3748"></path><path d="M99.7608 15.2646L91.3003 36.9231H86.9688L89.7701 29.7256L83.4895 15.2646H87.8955L91.7512 24.8067H91.7974L95.401 15.2646H99.7608Z" fill="#2D3748"></path><path d="M24.9983 10.711V18.392L18.9342 14.962V30.7901L12.1246 26.9357V11.111L6.06055 7.681V0L24.9983 10.711Z" fill="#2D3748"></path><path d="M21.9662 12.4573V20.1383L15.9057 16.7083V32.5364L9.09254 28.682V12.8574L3.03204 9.42734V1.74634L21.9662 12.4573Z" fill="#725BFF"></path><path d="M18.9342 14.2036V21.8846L12.8737 18.4546V34.2827L6.06405 30.4283V14.6036L0 11.1736V3.49261L18.9342 14.2036Z" fill="#00E6CD"></path></g></svg>